<?xml version="1.0" encoding="UTF-8" standalone="no"?>
<!-- Created with Inkscape (http://www.inkscape.org/) -->
<svg
   xmlns:dc="http://purl.org/dc/elements/1.1/"
   xmlns:cc="http://creativecommons.org/ns#"
   xmlns:rdf="http://www.w3.org/1999/02/22-rdf-syntax-ns#"
   xmlns:svg="http://www.w3.org/2000/svg"
   xmlns="http://www.w3.org/2000/svg"
   xmlns:xlink="http://www.w3.org/1999/xlink"
   xmlns:sodipodi="http://sodipodi.sourceforge.net/DTD/sodipodi-0.dtd"
   xmlns:inkscape="http://www.inkscape.org/namespaces/inkscape"
   id="svg2457"
   sodipodi:version="0.32"
   inkscape:version="0.46"
   width="400"
   height="400"
   version="1.0"
   sodipodi:docname="cuteskull.svg"
   inkscape:output_extension="org.inkscape.output.svg.inkscape">
  <metadata
     id="metadata2462">
    <rdf:RDF>
      <cc:Work
         rdf:about="">
        <dc:format>image/svg+xml</dc:format>
        <dc:type
           rdf:resource="http://purl.org/dc/dcmitype/StillImage" />
      </cc:Work>
    </rdf:RDF>
  </metadata>
  <defs
     id="defs2460">
    <inkscape:perspective
       sodipodi:type="inkscape:persp3d"
       inkscape:vp_x="0 : 526.18109 : 1"
       inkscape:vp_y="0 : 1000 : 0"
       inkscape:vp_z="744.09448 : 526.18109 : 1"
       inkscape:persp3d-origin="372.04724 : 350.78739 : 1"
       id="perspective2464" />
  </defs>
  <sodipodi:namedview
     inkscape:window-height="745"
     inkscape:window-width="1280"
     inkscape:pageshadow="2"
     inkscape:pageopacity="0.0"
     guidetolerance="10.0"
     gridtolerance="10.0"
     objecttolerance="10.0"
     borderopacity="1.0"
     bordercolor="#666666"
     pagecolor="#ffffff"
     id="base"
     showgrid="false"
     inkscape:zoom="1.155"
     inkscape:cx="200"
     inkscape:cy="200"
     inkscape:window-x="-4"
     inkscape:window-y="-4"
     inkscape:current-layer="svg2457" />
  <image
     xlink:href="cuteskull.png"
     sodipodi:absref="C:\Users\Mine\SVGs\Seasonal\cuteskull.png"
     width="400"
     height="400"
     id="image2466"
     x="0"
     y="0" />
  <path
     style="fill:#000000"
     d="M 79.26455,398.5152 C 71.438348,396.32261 64.903571,392.68097 58.889503,387.16077 C 51.953771,380.79459 47.49397,373.30084 45.151574,364.0771 L 43.282566,356.71743 L 35.922902,354.84843 C 0.16011428,345.76636 -11.958193,301.11204 14.232312,274.92153 C 18.59529,270.55856 26.407254,265.64704 32.515532,263.42657 C 39.296805,260.96145 56.612473,260.91779 62.958604,263.34981 L 67.417207,265.05848 L 82.113832,250.38636 L 96.810458,235.71423 L 95.371998,231.6372 C 89.76666,215.74998 89.562865,188.37382 94.915821,170.35809 L 96.740748,164.21617 L 82.078978,149.57885 L 67.417207,134.94152 L 62.958604,136.55044 C 56.692914,138.81146 44.420251,139.53053 37.889906,138.01925 C 11.295721,131.8647 -5.1899312,105.34569 1.532909,79.534962 C 6.0025205,62.374965 20.251736,48.621808 37.656455,44.668986 L 43.371117,43.371117 L 44.668986,37.656455 C 47.595344,24.771372 57.377157,11.722204 68.574864,5.7654516 C 96.608599,-9.1474246 131.4491,7.0185996 138.09869,38.024571 C 139.50881,44.599748 138.74677,56.872182 136.55044,62.958604 L 134.94152,67.417207 L 149.57885,82.078978 L 164.21617,96.740748 L 170.35809,94.915821 C 188.37382,89.562865 215.74998,89.76666 231.6372,95.371998 L 235.71423,96.810458 L 250.38636,82.113832 L 265.05848,67.417207 L 263.34981,62.958604 C 260.91779,56.612473 260.96145,39.296805 263.42657,32.515532 C 275.37283,-0.34727478 315.63424,-10.544951 341.1105,12.839233 C 348.04623,19.205413 352.50603,26.69916 354.84843,35.922902 L 356.71743,43.282566 L 364.0771,45.151574 C 386.46857,50.837954 401.21102,71.236479 399.74224,94.5 C 398.5784,112.93381 387.4526,128.30025 369.89118,135.72891 C 364.22388,138.12625 362.25412,138.42875 352.5,138.39973 C 344.57709,138.37615 340.25113,137.88731 337.03554,136.65219 L 332.57109,134.93739 L 318.11046,149.39801 L 303.64983,163.85864 L 305.99632,173.17932 C 310.28703,190.22281 309.87322,214.54348 305.027,230.14867 L 303.27279,235.79735 L 317.92779,250.42791 L 332.58279,265.05848 L 337.0414,263.46677 C 343.45817,261.17601 353.86235,260.51888 361.19678,261.94113 C 388.0823,267.1546 405.30836,294.19963 398.46881,320.45845 C 393.98028,337.69107 381.13527,350.51645 364.00884,354.86576 L 356.71743,356.71743 L 354.86576,364.00884 C 345.75747,399.87491 301.22473,412.06473 275.02376,385.86376 C 262.53059,373.37059 257.73323,353.10197 263.46753,337.03926 L 265.05999,332.57851 L 258.6529,326.17142 L 252.24581,319.76433 L 246.59782,321.87752 C 239.23786,324.63123 229.08865,325.39733 221.5,323.77199 C 216.56135,322.71422 214.3502,322.72436 209,323.82932 C 202.49865,325.17201 192.27842,324.81675 187.73728,323.09021 C 186.34164,322.55959 182.85805,322.79143 178.49844,323.70507 C 170.09076,325.46707 161.25489,324.81559 153.32625,321.84911 L 147.75419,319.76433 L 141.3471,326.17142 L 134.94001,332.57851 L 136.6535,337.03926 C 137.88923,340.25622 138.37429,344.56711 138.39314,352.5 C 138.4163,362.24735 138.10937,364.2402 135.69786,370 C 130.38354,382.69302 120.08392,392.60766 107.5,397.14388 C 99.817438,399.91327 86.554093,400.55744 79.26455,398.5152 z M 104.42291,380.05551 C 114.62195,375.08055 120.83937,365.92821 121.74183,354.5612 C 122.34482,346.96627 120.90337,341.53715 116.63925,335.34266 L 113.30569,330.5 L 123.6474,319.98914 L 133.9891,309.47827 L 130.61462,304.732 C 125.80451,297.96647 123.07708,291.05059 122.07652,283.08215 C 121.29346,276.8458 120.72784,275.58448 116.35379,270.32051 C 113.6842,267.10779 109.95216,262.00889 108.06037,258.9896 C 106.16857,255.97032 104.46472,253.29615 104.27404,253.047 C 104.08335,252.79785 96.181187,260.30979 86.713669,269.7402 L 69.5,286.8864 L 66.5,284.43579 C 61.210227,280.11475 53.333117,277.74264 46,278.26243 C 30.172769,279.3843 18.384304,291.17277 17.26243,307 C 15.634777,329.96268 40.305159,346.68332 60.68197,336.42809 L 66.5,333.5 L 63.624987,339.21094 C 55.476481,355.39716 63.902193,374.9921 81.882283,381.67034 C 87.44016,383.73467 98.505512,382.94193 104.42291,380.05551 z M 322.56346,379.73383 C 333.06971,374.38373 339.27732,364.30283 339.38639,352.41408 C 339.44095,346.46693 338.97317,344.3777 336.4757,339.41408 L 333.5,333.5 L 339.41408,336.4757 C 353.93377,343.78136 371.92745,337.58494 379.81365,322.56346 C 382.08063,318.24537 382.47401,316.24875 382.48597,309 C 382.50242,299.03105 380.36859,293.60389 373.88235,287.11765 C 363.31314,276.54844 346.36242,275.15967 334.32849,283.877 L 330.28458,286.80639 L 313.40332,269.9032 C 304.11863,260.60644 296.2921,253.01276 296.01103,253.02836 C 295.72996,253.04396 293.98625,255.55718 292.13611,258.6133 C 290.28597,261.66942 286.61983,266.75624 283.98913,269.91734 C 279.71553,275.05259 279.08468,276.45491 278.06664,283.0824 C 276.87155,290.86245 272.85306,300.70396 268.58832,306.29532 L 266.06632,309.60183 L 276.43915,319.93935 L 286.81197,330.27688 L 283.89613,334.30209 C 271.85357,350.92636 279.763,375.22903 299.29315,381.61123 C 305.74703,383.72027 316.42715,382.85863 322.56346,379.73383 z M 178.94985,306.01689 C 184.53541,304.13525 185.03267,304.11899 188.66831,305.69903 C 193.85097,307.9514 206.19254,307.93201 211.41722,305.66329 C 215.12059,304.05518 215.58464,304.05888 219.91722,305.73116 C 222.84488,306.86116 227.02813,307.47167 231.5,307.42157 C 248.36056,307.23266 260.338,294.93587 261.7214,276.39439 L 262.3104,268.5 L 268.21493,262.0402 C 279.27991,249.93463 287.19675,234.51522 290.41992,218.79216 C 292.45762,208.85198 292.45337,191.11059 290.41092,181.22246 C 286.02502,159.98895 273.09383,139.57814 255.65384,126.36128 C 248.2342,120.73833 231.93049,112.83115 223,110.52441 C 214.10734,108.22744 194.88967,107.42077 185.42704,108.94725 C 146.23942,115.26889 115.26889,146.23942 108.94725,185.42704 C 107.41894,194.90101 108.2286,214.11996 110.53015,223 C 112.50982,230.63818 119.48386,245.93601 123.93692,252.40832 C 125.6594,254.91186 129.45969,259.55666 132.382,262.73011 C 137.66778,268.47012 137.69859,268.54143 138.33151,276.5 C 139.5235,291.4883 147.74119,302.59544 160.40458,306.33426 C 167.44461,308.41281 172.07281,308.3336 178.94985,306.01689 z M 185.01187,243.59633 C 185.03552,231.44756 190.06293,219.62161 196.50311,216.56555 C 199.88472,214.96087 200.27166,214.96724 203.78722,216.68542 C 206.66398,218.0914 208.25871,219.99577 210.86943,225.14271 C 213.73238,230.7869 214.31599,233.13804 214.75193,240.7839 L 215.265,249.78238 L 209.8825,247.92384 C 203.09144,245.57893 196.94849,245.56489 190.25,247.87898 L 185,249.69267 L 185.01187,243.59633 z M 148.95056,229.69731 C 135.13103,225.79006 126.59503,214.44689 126.60265,200 C 126.62079,165.62244 173.118,157.80017 186.04474,190 C 188.4036,195.87581 187.74752,206.5837 184.62562,213.16136 C 178.35428,226.37475 162.76166,233.60217 148.95056,229.69731 z M 237.5,230.38216 C 224.85498,227.20597 216.53297,219.14529 213.44186,207.07952 C 207.19111,182.68044 233.28985,161.56317 256.26334,172.43137 C 267.25178,177.62973 273.4013,187.52204 273.4013,200 C 273.4013,212.27492 267.31773,222.2546 256.66054,227.46204 C 251.59862,229.93546 241.71712,231.44143 237.5,230.38216 z M 109,139.76796 C 114.6797,130.78807 128.2931,116.82507 137.82265,110.20511 C 141.85011,107.40733 145.67511,104.91659 146.32265,104.67014 C 146.97019,104.42368 139.70872,96.376069 130.18603,86.786551 C 114.7196,71.211567 113.04728,69.205652 114.51404,67.988346 C 115.41713,67.238851 117.3521,64.347362 118.81398,61.562814 C 121.0806,57.245426 121.47401,55.248498 121.48597,48 C 121.49733,41.118267 121.05973,38.60617 119.18748,34.805128 C 110.02012,16.193577 86.267163,11.330103 70.843472,24.906579 C 60.332933,34.158325 57.538724,50.323841 64.345133,62.501832 L 66.680806,66.680806 L 62.501832,64.345133 C 50.323841,57.538724 34.158325,60.332933 24.906579,70.843472 C 11.330103,86.267163 16.193577,110.02012 34.805128,119.18748 C 41.565778,122.51753 54.56553,122.48659 61,119.12515 C 63.475,117.83218 66.416601,115.93673 67.53689,114.91304 C 69.552454,113.07127 69.751272,113.22951 86.525859,130.02589 C 95.849501,139.36165 103.7079,146.9736 103.98897,146.94134 C 104.27004,146.90907 106.525,143.68105 109,139.76796 z M 313.36356,130.13662 L 330.20505,113.27324 L 335.17456,116.61747 C 341.54656,120.90551 346.98591,122.34326 354.5612,121.74183 C 365.91884,120.84011 375.04608,114.64499 380.07709,104.42291 C 382.06483,100.38419 382.5,97.973338 382.5,91 C 382.5,83.447294 382.16942,81.903159 379.5337,77.144593 C 371.33923,62.350147 353.57467,56.393962 339.21094,63.624987 L 333.5,66.5 L 336.42809,60.68197 C 342.13019,49.352086 339.78573,35.655299 330.56624,26.435802 C 321.93192,17.801486 310.89503,15.060197 298.99469,18.594217 C 291.53841,20.808494 282.14547,30.19258 279.70588,37.864835 C 276.55171,47.784414 278.42836,59.145761 284.43579,66.5 L 286.8864,69.5 L 269.7402,86.713669 C 260.30979,96.181187 252.79785,104.07941 253.047,104.26528 C 253.29615,104.45115 256.65,106.58984 260.5,109.01793 C 269.47456,114.67794 286.3362,131.67762 291.5,140.27171 C 293.7,143.93316 295.72996,146.94489 296.01103,146.96445 C 296.2921,146.984 304.10074,139.41148 313.36356,130.13662 z"
     id="path2468" />
</svg>
